<svg xmlns="http://www.w3.org/2000/svg" viewBox="0 0 29.62 29.62"><defs><style>.cls-1{fill:#fff;}</style></defs><g id="Camada_2" data-name="Camada 2"><g id="Camada_2-2" data-name="Camada 2"><path class="cls-1" d="M14.81,0A14.8,14.8,0,0,0,2.22,22.59L.07,28.25a1,1,0,0,0,1.29,1.3l5.71-2.13A14.8,14.8,0,1,0,14.81,0Zm2.81,22a2.53,2.53,0,0,1-3.92,2.09,2.27,2.27,0,0,1-1.08-2V15c0-1.44.41-2.26,1.15-2.65a2.56,2.56,0,0,1,3.11.38,2.47,2.47,0,0,1,.74,1.77ZM14.81,10.25A2.28,2.28,0,1,1,17.09,8,2.28,2.28,0,0,1,14.81,10.25Z"/></g></g></svg>