<svg xmlns="http://www.w3.org/2000/svg" viewBox="0 0 45 51">
  <defs>
    <style>.cls-1{fill:#fff;}.cls-2{fill:var(--primary-color);}</style>
  </defs>
  <g id="Camada_2" data-name="Camada 2">
    <g id="Camada_2-2" data-name="Camada 2">
      <path class="cls-1" d="M6.3,50.5V51H38.7A6.3,6.3,0,0,0,45,44.7V6.3A6.3,6.3,0,0,0,38.7,0H6.3A6.3,6.3,0,0,0,0,6.3V44.7A6.3,6.3,0,0,0,6.3,51V50A5.29,5.29,0,0,1,1,44.7V6.3A5.29,5.29,0,0,1,6.3,1H38.7A5.29,5.29,0,0,1,44,6.3V44.7A5.29,5.29,0,0,1,38.7,50H6.3Z" />
      <path class="cls-1" d="M42,7V43a4,4,0,0,1-4,4H7a4,4,0,0,1-4-4V7A4,4,0,0,1,7,3H38A4,4,0,0,1,42,7Z" />
      <path class="cls-2" d="M27.89,23.07c-1.33,5.11,8.62,16.33,2.42,17.75-3.31.75-2.79-11.25-7-11.26s-3.84,13.92-9,11.5c-3.87-1.81,6-12.85,4.68-18C18,19.71,7.83,18.12,9.23,14.94l.65-.86c1.84-1.22,5.69,3,12.77,2.88,10.4-.18,12.1-5.19,13.7-1.73C37.73,18.24,28.73,19.87,27.89,23.07Z" />
      <path class="cls-2" d="M9.23,14.93a1.93,1.93,0,0,1,.65-.86" />
      <path class="cls-2" d="M26.58,12.42A3.62,3.62,0,1,1,23,8.8,3.62,3.62,0,0,1,26.58,12.42Z" />
    </g>
  </g>
</svg>