<svg xmlns="http://www.w3.org/2000/svg" viewBox="0 0 30 30"><defs><style>.cls-1{fill:#fff;}</style></defs><g id="Camada_2" data-name="Camada 2"><g id="Camada_2-2" data-name="Camada 2"><path class="cls-1" d="M17.83,15a2.67,2.67,0,1,1-2.67-2.66A2.68,2.68,0,0,1,17.83,15Z"/><path class="cls-1" d="M19.47,7H10.56A3.56,3.56,0,0,0,7,10.56v8.88A3.56,3.56,0,0,0,10.56,23h8.88A3.56,3.56,0,0,0,23,19.44V10.53A3.53,3.53,0,0,0,19.47,7ZM15.16,19.49A4.45,4.45,0,1,1,19.61,15,4.45,4.45,0,0,1,15.16,19.49Zm5.1-8.66a.89.89,0,1,1,.89-.88A.88.88,0,0,1,20.26,10.83Z"/><path class="cls-1" d="M22.09,0H8A8,8,0,0,0,0,8V22a8,8,0,0,0,8,8H22a8,8,0,0,0,8-8V7.91A7.92,7.92,0,0,0,22.09,0ZM19.67,25H10.33A5.33,5.33,0,0,1,5,19.67V10.33A5.33,5.33,0,0,1,10.33,5h9.34A5.33,5.33,0,0,1,25,10.33v9.34A5.33,5.33,0,0,1,19.67,25Z"/></g></g></svg>