<svg xmlns="http://www.w3.org/2000/svg" viewBox="0 0 30 30"><defs><style>.cls-1{fill:#fff;}</style></defs><g id="Camada_2" data-name="Camada 2"><g id="Camada_2-2" data-name="Camada 2"><polygon class="cls-1" points="13 17.55 18.02 14.85 13 12.1 13 17.55"/><path class="cls-1" d="M24,15.76c0,1.52-.14,3.07-.14,3.07a4.2,4.2,0,0,1-.69,1.87,2.46,2.46,0,0,1-1.8.8c-2.54.19-6.35.21-6.35.21s-4.73-.07-6.18-.21a3,3,0,0,1-2-.8,4,4,0,0,1-.69-1.87S6,17.28,6,15.76V14.33c0-1.53.14-3.07.14-3.07a4.16,4.16,0,0,1,.69-1.87,2.53,2.53,0,0,1,1.8-.83C11.19,8.37,15,8.35,15,8.35s3.81,0,6.35.21a2.65,2.65,0,0,1,1.82.8,4,4,0,0,1,.69,1.9S24,12.8,24,14.33ZM22.48,0H7.5A7.53,7.53,0,0,0,0,7.52v15A7.49,7.49,0,0,0,7.47,30h15A7.51,7.51,0,0,0,30,22.51v-15A7.54,7.54,0,0,0,22.48,0Z"/></g></g></svg>